<mxfile host="www.draw.io" modified="2023-11-12T13:07:03.735Z" agent="Mozilla/5.0 (Windows NT 10.0; Win64; x64) AppleWebKit/537.36 (KHTML, like Gecko) Chrome/119.0.0.0 Safari/537.36" etag="tuW6RBVL1gTa1Kye32cX" version="22.1.0" type="device">
  <diagram id="R2lEEEUBdFMjLlhIrx00" name="Page-1">
    <mxGraphModel dx="1590" dy="1017" grid="1" gridSize="10" guides="1" tooltips="1" connect="1" arrows="1" fold="1" page="1" pageScale="1" pageWidth="850" pageHeight="1100" math="0" shadow="0" extFonts="Permanent Marker^https://fonts.googleapis.com/css?family=Permanent+Marker">
      <root>
        <mxCell id="0" />
        <mxCell id="1" parent="0" />
        <mxCell id="o8lwn177sXqKOeNON-Jk-8" value="用户1" style="rounded=0;whiteSpace=wrap;html=1;" vertex="1" parent="1">
          <mxGeometry x="165" y="65" width="120" height="60" as="geometry" />
        </mxCell>
        <mxCell id="o8lwn177sXqKOeNON-Jk-11" value="爱游小程序" style="rounded=1;whiteSpace=wrap;html=1;" vertex="1" parent="1">
          <mxGeometry x="385" y="50" width="90" height="90" as="geometry" />
        </mxCell>
        <mxCell id="o8lwn177sXqKOeNON-Jk-12" value="用户2" style="rounded=0;whiteSpace=wrap;html=1;" vertex="1" parent="1">
          <mxGeometry x="565" y="65" width="120" height="60" as="geometry" />
        </mxCell>
        <mxCell id="o8lwn177sXqKOeNON-Jk-13" value="" style="endArrow=classic;html=1;rounded=0;" edge="1" parent="1" source="o8lwn177sXqKOeNON-Jk-11">
          <mxGeometry width="50" height="50" relative="1" as="geometry">
            <mxPoint x="465" y="155" as="sourcePoint" />
            <mxPoint x="565" y="95" as="targetPoint" />
            <Array as="points">
              <mxPoint x="515" y="95" />
            </Array>
          </mxGeometry>
        </mxCell>
        <mxCell id="o8lwn177sXqKOeNON-Jk-14" value="" style="endArrow=classic;html=1;rounded=0;" edge="1" parent="1">
          <mxGeometry width="50" height="50" relative="1" as="geometry">
            <mxPoint x="285" y="94.5" as="sourcePoint" />
            <mxPoint x="385" y="95" as="targetPoint" />
            <Array as="points">
              <mxPoint x="325" y="94.5" />
            </Array>
          </mxGeometry>
        </mxCell>
        <mxCell id="o8lwn177sXqKOeNON-Jk-15" value="&lt;font style=&quot;font-size: 20px;&quot;&gt;顶层：&lt;/font&gt;" style="text;html=1;align=center;verticalAlign=middle;resizable=0;points=[];autosize=1;strokeColor=none;fillColor=none;" vertex="1" parent="1">
          <mxGeometry x="17.5" y="75" width="80" height="40" as="geometry" />
        </mxCell>
        <mxCell id="o8lwn177sXqKOeNON-Jk-16" value="&lt;font style=&quot;font-size: 20px;&quot;&gt;第0层：&lt;/font&gt;" style="text;html=1;align=center;verticalAlign=middle;resizable=0;points=[];autosize=1;strokeColor=none;fillColor=none;" vertex="1" parent="1">
          <mxGeometry x="17.5" y="376.5" width="90" height="40" as="geometry" />
        </mxCell>
        <mxCell id="o8lwn177sXqKOeNON-Jk-17" value="信息" style="text;html=1;align=center;verticalAlign=middle;resizable=0;points=[];autosize=1;strokeColor=none;fillColor=none;" vertex="1" parent="1">
          <mxGeometry x="310" y="65" width="50" height="30" as="geometry" />
        </mxCell>
        <mxCell id="o8lwn177sXqKOeNON-Jk-18" value="信息" style="text;html=1;align=center;verticalAlign=middle;resizable=0;points=[];autosize=1;strokeColor=none;fillColor=none;" vertex="1" parent="1">
          <mxGeometry x="490" y="65" width="50" height="30" as="geometry" />
        </mxCell>
        <mxCell id="o8lwn177sXqKOeNON-Jk-19" value="用户1" style="rounded=0;whiteSpace=wrap;html=1;" vertex="1" parent="1">
          <mxGeometry x="147.5" y="370" width="105" height="53" as="geometry" />
        </mxCell>
        <mxCell id="o8lwn177sXqKOeNON-Jk-21" value="用户2" style="rounded=0;whiteSpace=wrap;html=1;" vertex="1" parent="1">
          <mxGeometry x="587.5" y="305.5" width="110" height="57" as="geometry" />
        </mxCell>
        <mxCell id="o8lwn177sXqKOeNON-Jk-22" value="" style="endArrow=classic;html=1;rounded=0;exitX=0.993;exitY=0.333;exitDx=0;exitDy=0;exitPerimeter=0;entryX=0;entryY=0.5;entryDx=0;entryDy=0;" edge="1" parent="1" source="o8lwn177sXqKOeNON-Jk-29" target="o8lwn177sXqKOeNON-Jk-21">
          <mxGeometry width="50" height="50" relative="1" as="geometry">
            <mxPoint x="472.5" y="303" as="sourcePoint" />
            <mxPoint x="562.5" y="303" as="targetPoint" />
            <Array as="points" />
          </mxGeometry>
        </mxCell>
        <mxCell id="o8lwn177sXqKOeNON-Jk-137" value="发送信息" style="edgeLabel;html=1;align=center;verticalAlign=middle;resizable=0;points=[];" vertex="1" connectable="0" parent="o8lwn177sXqKOeNON-Jk-22">
          <mxGeometry x="-0.0103" y="1" relative="1" as="geometry">
            <mxPoint as="offset" />
          </mxGeometry>
        </mxCell>
        <mxCell id="o8lwn177sXqKOeNON-Jk-27" value="1" style="swimlane;fontStyle=0;childLayout=stackLayout;horizontal=1;startSize=20;fillColor=#ffffff;horizontalStack=0;resizeParent=1;resizeParentMax=0;resizeLast=0;collapsible=0;marginBottom=0;swimlaneFillColor=#ffffff;" vertex="1" parent="1">
          <mxGeometry x="372.5" y="305.5" width="70" height="50" as="geometry" />
        </mxCell>
        <mxCell id="o8lwn177sXqKOeNON-Jk-29" value="聊天" style="text;html=1;align=center;verticalAlign=middle;resizable=0;points=[];autosize=1;strokeColor=none;fillColor=none;" vertex="1" parent="o8lwn177sXqKOeNON-Jk-27">
          <mxGeometry y="20" width="70" height="30" as="geometry" />
        </mxCell>
        <mxCell id="o8lwn177sXqKOeNON-Jk-30" value="D1&amp;nbsp; &amp;nbsp; &amp;nbsp; 聊天信息" style="html=1;dashed=0;whiteSpace=wrap;shape=mxgraph.dfd.dataStoreID;align=left;spacingLeft=3;points=[[0,0],[0.5,0],[1,0],[0,0.5],[1,0.5],[0,1],[0.5,1],[1,1]];" vertex="1" parent="1">
          <mxGeometry x="352.5" y="220" width="100" height="30" as="geometry" />
        </mxCell>
        <mxCell id="o8lwn177sXqKOeNON-Jk-33" value="2" style="swimlane;fontStyle=0;childLayout=stackLayout;horizontal=1;startSize=20;fillColor=#ffffff;horizontalStack=0;resizeParent=1;resizeParentMax=0;resizeLast=0;collapsible=0;marginBottom=0;swimlaneFillColor=#ffffff;" vertex="1" parent="1">
          <mxGeometry x="382.5" y="470" width="70" height="50" as="geometry" />
        </mxCell>
        <mxCell id="o8lwn177sXqKOeNON-Jk-34" value="发帖" style="text;html=1;align=center;verticalAlign=middle;resizable=0;points=[];autosize=1;strokeColor=none;fillColor=none;" vertex="1" parent="o8lwn177sXqKOeNON-Jk-33">
          <mxGeometry y="20" width="70" height="30" as="geometry" />
        </mxCell>
        <mxCell id="o8lwn177sXqKOeNON-Jk-35" value="D2&amp;nbsp; &amp;nbsp; &amp;nbsp; 帖子信息" style="html=1;dashed=0;whiteSpace=wrap;shape=mxgraph.dfd.dataStoreID;align=left;spacingLeft=3;points=[[0,0],[0.5,0],[1,0],[0,0.5],[1,0.5],[0,1],[0.5,1],[1,1]];" vertex="1" parent="1">
          <mxGeometry x="382.5" y="570" width="100" height="30" as="geometry" />
        </mxCell>
        <mxCell id="o8lwn177sXqKOeNON-Jk-59" style="edgeStyle=orthogonalEdgeStyle;rounded=0;orthogonalLoop=1;jettySize=auto;html=1;" edge="1" parent="1" source="o8lwn177sXqKOeNON-Jk-37" target="o8lwn177sXqKOeNON-Jk-21">
          <mxGeometry relative="1" as="geometry" />
        </mxCell>
        <mxCell id="o8lwn177sXqKOeNON-Jk-150" value="加入信息" style="edgeLabel;html=1;align=center;verticalAlign=middle;resizable=0;points=[];" vertex="1" connectable="0" parent="o8lwn177sXqKOeNON-Jk-59">
          <mxGeometry x="0.2235" y="3" relative="1" as="geometry">
            <mxPoint x="3" y="4" as="offset" />
          </mxGeometry>
        </mxCell>
        <mxCell id="o8lwn177sXqKOeNON-Jk-37" value="3" style="swimlane;fontStyle=0;childLayout=stackLayout;horizontal=1;startSize=20;fillColor=#ffffff;horizontalStack=0;resizeParent=1;resizeParentMax=0;resizeLast=0;collapsible=0;marginBottom=0;swimlaneFillColor=#ffffff;" vertex="1" parent="1">
          <mxGeometry x="607.5" y="400" width="70" height="50" as="geometry" />
        </mxCell>
        <mxCell id="o8lwn177sXqKOeNON-Jk-38" value="产生攒局" style="text;html=1;align=center;verticalAlign=middle;resizable=0;points=[];autosize=1;strokeColor=none;fillColor=none;" vertex="1" parent="o8lwn177sXqKOeNON-Jk-37">
          <mxGeometry y="20" width="70" height="30" as="geometry" />
        </mxCell>
        <mxCell id="o8lwn177sXqKOeNON-Jk-57" style="edgeStyle=orthogonalEdgeStyle;rounded=0;orthogonalLoop=1;jettySize=auto;html=1;" edge="1" parent="1" source="o8lwn177sXqKOeNON-Jk-39" target="o8lwn177sXqKOeNON-Jk-38">
          <mxGeometry relative="1" as="geometry" />
        </mxCell>
        <mxCell id="o8lwn177sXqKOeNON-Jk-151" value="攒局" style="edgeLabel;html=1;align=center;verticalAlign=middle;resizable=0;points=[];" vertex="1" connectable="0" parent="o8lwn177sXqKOeNON-Jk-57">
          <mxGeometry x="0.15" y="2" relative="1" as="geometry">
            <mxPoint x="1" y="6" as="offset" />
          </mxGeometry>
        </mxCell>
        <mxCell id="o8lwn177sXqKOeNON-Jk-39" value="D3&amp;nbsp; &amp;nbsp; &amp;nbsp; 攒局信息" style="html=1;dashed=0;whiteSpace=wrap;shape=mxgraph.dfd.dataStoreID;align=left;spacingLeft=3;points=[[0,0],[0.5,0],[1,0],[0,0.5],[1,0.5],[0,1],[0.5,1],[1,1]];" vertex="1" parent="1">
          <mxGeometry x="592.5" y="490" width="100" height="30" as="geometry" />
        </mxCell>
        <mxCell id="o8lwn177sXqKOeNON-Jk-44" style="edgeStyle=orthogonalEdgeStyle;rounded=0;orthogonalLoop=1;jettySize=auto;html=1;verticalAlign=top;startArrow=classic;startFill=1;entryX=0.57;entryY=0.983;entryDx=0;entryDy=0;entryPerimeter=0;exitX=0.5;exitY=0;exitDx=0;exitDy=0;" edge="1" parent="1" source="o8lwn177sXqKOeNON-Jk-27" target="o8lwn177sXqKOeNON-Jk-30">
          <mxGeometry relative="1" as="geometry">
            <mxPoint x="367.5" y="270" as="sourcePoint" />
            <mxPoint x="403.5" y="230" as="targetPoint" />
            <Array as="points" />
          </mxGeometry>
        </mxCell>
        <mxCell id="o8lwn177sXqKOeNON-Jk-131" value="存储聊天" style="edgeLabel;html=1;align=center;verticalAlign=middle;resizable=0;points=[];" vertex="1" connectable="0" parent="o8lwn177sXqKOeNON-Jk-44">
          <mxGeometry x="-0.0544" y="2" relative="1" as="geometry">
            <mxPoint as="offset" />
          </mxGeometry>
        </mxCell>
        <mxCell id="o8lwn177sXqKOeNON-Jk-48" style="edgeStyle=orthogonalEdgeStyle;rounded=0;orthogonalLoop=1;jettySize=auto;html=1;entryX=0.355;entryY=-0.017;entryDx=0;entryDy=0;entryPerimeter=0;" edge="1" parent="1" source="o8lwn177sXqKOeNON-Jk-34" target="o8lwn177sXqKOeNON-Jk-35">
          <mxGeometry relative="1" as="geometry" />
        </mxCell>
        <mxCell id="o8lwn177sXqKOeNON-Jk-135" value="存储帖子" style="edgeLabel;html=1;align=center;verticalAlign=middle;resizable=0;points=[];" vertex="1" connectable="0" parent="o8lwn177sXqKOeNON-Jk-48">
          <mxGeometry x="-0.2398" y="-2" relative="1" as="geometry">
            <mxPoint as="offset" />
          </mxGeometry>
        </mxCell>
        <mxCell id="o8lwn177sXqKOeNON-Jk-54" style="edgeStyle=orthogonalEdgeStyle;rounded=0;orthogonalLoop=1;jettySize=auto;html=1;exitX=0.5;exitY=1;exitDx=0;exitDy=0;" edge="1" parent="1" source="o8lwn177sXqKOeNON-Jk-19">
          <mxGeometry relative="1" as="geometry">
            <mxPoint x="377.5" y="500" as="targetPoint" />
            <Array as="points">
              <mxPoint x="197.5" y="423" />
              <mxPoint x="197.5" y="500" />
            </Array>
          </mxGeometry>
        </mxCell>
        <mxCell id="o8lwn177sXqKOeNON-Jk-136" value="发布帖子" style="edgeLabel;html=1;align=center;verticalAlign=middle;resizable=0;points=[];" vertex="1" connectable="0" parent="o8lwn177sXqKOeNON-Jk-54">
          <mxGeometry x="0.2717" y="-2" relative="1" as="geometry">
            <mxPoint as="offset" />
          </mxGeometry>
        </mxCell>
        <mxCell id="o8lwn177sXqKOeNON-Jk-56" style="edgeStyle=orthogonalEdgeStyle;rounded=0;orthogonalLoop=1;jettySize=auto;html=1;entryX=0;entryY=0.5;entryDx=0;entryDy=0;" edge="1" parent="1" source="o8lwn177sXqKOeNON-Jk-34" target="o8lwn177sXqKOeNON-Jk-39">
          <mxGeometry relative="1" as="geometry" />
        </mxCell>
        <mxCell id="o8lwn177sXqKOeNON-Jk-149" value="帖子内容" style="edgeLabel;html=1;align=center;verticalAlign=middle;resizable=0;points=[];" vertex="1" connectable="0" parent="o8lwn177sXqKOeNON-Jk-56">
          <mxGeometry x="-0.0929" y="1" relative="1" as="geometry">
            <mxPoint x="1" as="offset" />
          </mxGeometry>
        </mxCell>
        <mxCell id="o8lwn177sXqKOeNON-Jk-62" style="edgeStyle=orthogonalEdgeStyle;rounded=0;orthogonalLoop=1;jettySize=auto;html=1;exitX=0.5;exitY=0;exitDx=0;exitDy=0;entryX=0;entryY=0.483;entryDx=0;entryDy=0;entryPerimeter=0;" edge="1" parent="1" source="o8lwn177sXqKOeNON-Jk-19" target="o8lwn177sXqKOeNON-Jk-29">
          <mxGeometry relative="1" as="geometry" />
        </mxCell>
        <mxCell id="o8lwn177sXqKOeNON-Jk-139" value="发布聊天信息" style="edgeLabel;html=1;align=center;verticalAlign=middle;resizable=0;points=[];" vertex="1" connectable="0" parent="o8lwn177sXqKOeNON-Jk-62">
          <mxGeometry x="0.1259" y="-1" relative="1" as="geometry">
            <mxPoint as="offset" />
          </mxGeometry>
        </mxCell>
        <mxCell id="o8lwn177sXqKOeNON-Jk-63" value="&lt;font style=&quot;font-size: 20px;&quot;&gt;第1层：&lt;/font&gt;" style="text;html=1;align=center;verticalAlign=middle;resizable=0;points=[];autosize=1;strokeColor=none;fillColor=none;" vertex="1" parent="1">
          <mxGeometry x="20" y="806.5" width="90" height="40" as="geometry" />
        </mxCell>
        <mxCell id="o8lwn177sXqKOeNON-Jk-86" value="用户1" style="rounded=0;whiteSpace=wrap;html=1;" vertex="1" parent="1">
          <mxGeometry x="140" y="820" width="105" height="53" as="geometry" />
        </mxCell>
        <mxCell id="o8lwn177sXqKOeNON-Jk-87" value="用户2" style="rounded=0;whiteSpace=wrap;html=1;" vertex="1" parent="1">
          <mxGeometry x="692.5" y="745.5" width="110" height="57" as="geometry" />
        </mxCell>
        <mxCell id="o8lwn177sXqKOeNON-Jk-88" value="" style="endArrow=classic;html=1;rounded=0;exitX=0.993;exitY=0.333;exitDx=0;exitDy=0;exitPerimeter=0;entryX=0;entryY=0.5;entryDx=0;entryDy=0;" edge="1" parent="1" source="o8lwn177sXqKOeNON-Jk-92" target="o8lwn177sXqKOeNON-Jk-87">
          <mxGeometry width="50" height="50" relative="1" as="geometry">
            <mxPoint x="377.5" y="743" as="sourcePoint" />
            <mxPoint x="467.5" y="743" as="targetPoint" />
            <Array as="points" />
          </mxGeometry>
        </mxCell>
        <mxCell id="o8lwn177sXqKOeNON-Jk-141" value="发送信息" style="edgeLabel;html=1;align=center;verticalAlign=middle;resizable=0;points=[];" vertex="1" connectable="0" parent="o8lwn177sXqKOeNON-Jk-88">
          <mxGeometry x="-0.0672" y="2" relative="1" as="geometry">
            <mxPoint x="1" as="offset" />
          </mxGeometry>
        </mxCell>
        <mxCell id="o8lwn177sXqKOeNON-Jk-91" value="1" style="swimlane;fontStyle=0;childLayout=stackLayout;horizontal=1;startSize=20;fillColor=#ffffff;horizontalStack=0;resizeParent=1;resizeParentMax=0;resizeLast=0;collapsible=0;marginBottom=0;swimlaneFillColor=#ffffff;" vertex="1" parent="1">
          <mxGeometry x="345" y="745.5" width="70" height="50" as="geometry" />
        </mxCell>
        <mxCell id="o8lwn177sXqKOeNON-Jk-92" value="聊天" style="text;html=1;align=center;verticalAlign=middle;resizable=0;points=[];autosize=1;strokeColor=none;fillColor=none;" vertex="1" parent="o8lwn177sXqKOeNON-Jk-91">
          <mxGeometry y="20" width="70" height="30" as="geometry" />
        </mxCell>
        <mxCell id="o8lwn177sXqKOeNON-Jk-93" value="D1&amp;nbsp; &amp;nbsp; &amp;nbsp; 聊天信息" style="html=1;dashed=0;whiteSpace=wrap;shape=mxgraph.dfd.dataStoreID;align=left;spacingLeft=3;points=[[0,0],[0.5,0],[1,0],[0,0.5],[1,0.5],[0,1],[0.5,1],[1,1]];" vertex="1" parent="1">
          <mxGeometry x="320" y="670" width="100" height="30" as="geometry" />
        </mxCell>
        <mxCell id="o8lwn177sXqKOeNON-Jk-94" value="2" style="swimlane;fontStyle=0;childLayout=stackLayout;horizontal=1;startSize=20;fillColor=#ffffff;horizontalStack=0;resizeParent=1;resizeParentMax=0;resizeLast=0;collapsible=0;marginBottom=0;swimlaneFillColor=#ffffff;" vertex="1" parent="1">
          <mxGeometry x="307.5" y="914" width="70" height="50" as="geometry" />
        </mxCell>
        <mxCell id="o8lwn177sXqKOeNON-Jk-95" value="发帖" style="text;html=1;align=center;verticalAlign=middle;resizable=0;points=[];autosize=1;strokeColor=none;fillColor=none;" vertex="1" parent="o8lwn177sXqKOeNON-Jk-94">
          <mxGeometry y="20" width="70" height="30" as="geometry" />
        </mxCell>
        <mxCell id="o8lwn177sXqKOeNON-Jk-96" value="D2&amp;nbsp; &amp;nbsp; &amp;nbsp; 帖子信息" style="html=1;dashed=0;whiteSpace=wrap;shape=mxgraph.dfd.dataStoreID;align=left;spacingLeft=3;points=[[0,0],[0.5,0],[1,0],[0,0.5],[1,0.5],[0,1],[0.5,1],[1,1]];" vertex="1" parent="1">
          <mxGeometry x="307.5" y="1004" width="100" height="30" as="geometry" />
        </mxCell>
        <mxCell id="o8lwn177sXqKOeNON-Jk-97" style="edgeStyle=orthogonalEdgeStyle;rounded=0;orthogonalLoop=1;jettySize=auto;html=1;" edge="1" parent="1" source="o8lwn177sXqKOeNON-Jk-98" target="o8lwn177sXqKOeNON-Jk-87">
          <mxGeometry relative="1" as="geometry" />
        </mxCell>
        <mxCell id="o8lwn177sXqKOeNON-Jk-147" value="加入信息" style="edgeLabel;html=1;align=center;verticalAlign=middle;resizable=0;points=[];" vertex="1" connectable="0" parent="o8lwn177sXqKOeNON-Jk-97">
          <mxGeometry x="-0.0629" y="1" relative="1" as="geometry">
            <mxPoint as="offset" />
          </mxGeometry>
        </mxCell>
        <mxCell id="o8lwn177sXqKOeNON-Jk-98" value="3" style="swimlane;fontStyle=0;childLayout=stackLayout;horizontal=1;startSize=20;fillColor=#ffffff;horizontalStack=0;resizeParent=1;resizeParentMax=0;resizeLast=0;collapsible=0;marginBottom=0;swimlaneFillColor=#ffffff;" vertex="1" parent="1">
          <mxGeometry x="712.5" y="890" width="70" height="50" as="geometry" />
        </mxCell>
        <mxCell id="o8lwn177sXqKOeNON-Jk-99" value="产生攒局" style="text;html=1;align=center;verticalAlign=middle;resizable=0;points=[];autosize=1;strokeColor=none;fillColor=none;" vertex="1" parent="o8lwn177sXqKOeNON-Jk-98">
          <mxGeometry y="20" width="70" height="30" as="geometry" />
        </mxCell>
        <mxCell id="o8lwn177sXqKOeNON-Jk-100" style="edgeStyle=orthogonalEdgeStyle;rounded=0;orthogonalLoop=1;jettySize=auto;html=1;" edge="1" parent="1" source="o8lwn177sXqKOeNON-Jk-101" target="o8lwn177sXqKOeNON-Jk-99">
          <mxGeometry relative="1" as="geometry" />
        </mxCell>
        <mxCell id="o8lwn177sXqKOeNON-Jk-143" value="攒局" style="edgeLabel;html=1;align=center;verticalAlign=middle;resizable=0;points=[];" vertex="1" connectable="0" parent="o8lwn177sXqKOeNON-Jk-100">
          <mxGeometry x="-0.125" y="1" relative="1" as="geometry">
            <mxPoint as="offset" />
          </mxGeometry>
        </mxCell>
        <mxCell id="o8lwn177sXqKOeNON-Jk-101" value="D3&amp;nbsp; &amp;nbsp; &amp;nbsp; 攒局信息" style="html=1;dashed=0;whiteSpace=wrap;shape=mxgraph.dfd.dataStoreID;align=left;spacingLeft=3;points=[[0,0],[0.5,0],[1,0],[0,0.5],[1,0.5],[0,1],[0.5,1],[1,1]];" vertex="1" parent="1">
          <mxGeometry x="697.5" y="1004" width="100" height="30" as="geometry" />
        </mxCell>
        <mxCell id="o8lwn177sXqKOeNON-Jk-102" style="edgeStyle=orthogonalEdgeStyle;rounded=0;orthogonalLoop=1;jettySize=auto;html=1;verticalAlign=top;startArrow=classic;startFill=1;entryX=0.57;entryY=0.983;entryDx=0;entryDy=0;entryPerimeter=0;exitX=0.5;exitY=0;exitDx=0;exitDy=0;" edge="1" parent="1" source="o8lwn177sXqKOeNON-Jk-91" target="o8lwn177sXqKOeNON-Jk-93">
          <mxGeometry relative="1" as="geometry">
            <mxPoint x="302.5" y="710" as="sourcePoint" />
            <mxPoint x="338.5" y="670" as="targetPoint" />
            <Array as="points" />
          </mxGeometry>
        </mxCell>
        <mxCell id="o8lwn177sXqKOeNON-Jk-132" value="存储聊天" style="edgeLabel;html=1;align=center;verticalAlign=middle;resizable=0;points=[];" vertex="1" connectable="0" parent="o8lwn177sXqKOeNON-Jk-102">
          <mxGeometry x="0.008" y="-1" relative="1" as="geometry">
            <mxPoint as="offset" />
          </mxGeometry>
        </mxCell>
        <mxCell id="o8lwn177sXqKOeNON-Jk-103" style="edgeStyle=orthogonalEdgeStyle;rounded=0;orthogonalLoop=1;jettySize=auto;html=1;entryX=0.355;entryY=-0.017;entryDx=0;entryDy=0;entryPerimeter=0;" edge="1" parent="1" source="o8lwn177sXqKOeNON-Jk-95" target="o8lwn177sXqKOeNON-Jk-96">
          <mxGeometry relative="1" as="geometry" />
        </mxCell>
        <mxCell id="o8lwn177sXqKOeNON-Jk-133" value="存储帖子" style="edgeLabel;html=1;align=center;verticalAlign=middle;resizable=0;points=[];" vertex="1" connectable="0" parent="o8lwn177sXqKOeNON-Jk-103">
          <mxGeometry x="-0.1998" relative="1" as="geometry">
            <mxPoint x="1" as="offset" />
          </mxGeometry>
        </mxCell>
        <mxCell id="o8lwn177sXqKOeNON-Jk-109" value="4" style="swimlane;fontStyle=0;childLayout=stackLayout;horizontal=1;startSize=20;fillColor=#ffffff;horizontalStack=0;resizeParent=1;resizeParentMax=0;resizeLast=0;collapsible=0;marginBottom=0;swimlaneFillColor=#ffffff;" vertex="1" parent="1">
          <mxGeometry x="450" y="917" width="70" height="50" as="geometry" />
        </mxCell>
        <mxCell id="o8lwn177sXqKOeNON-Jk-110" value="评论回复" style="text;html=1;align=center;verticalAlign=middle;resizable=0;points=[];autosize=1;strokeColor=none;fillColor=none;" vertex="1" parent="o8lwn177sXqKOeNON-Jk-109">
          <mxGeometry y="20" width="70" height="30" as="geometry" />
        </mxCell>
        <mxCell id="o8lwn177sXqKOeNON-Jk-111" value="D4&amp;nbsp; &amp;nbsp; &amp;nbsp; 评论信息" style="html=1;dashed=0;whiteSpace=wrap;shape=mxgraph.dfd.dataStoreID;align=left;spacingLeft=3;points=[[0,0],[0.5,0],[1,0],[0,0.5],[1,0.5],[0,1],[0.5,1],[1,1]];" vertex="1" parent="1">
          <mxGeometry x="435" y="1004" width="100" height="30" as="geometry" />
        </mxCell>
        <mxCell id="o8lwn177sXqKOeNON-Jk-113" value="5" style="swimlane;fontStyle=0;childLayout=stackLayout;horizontal=1;startSize=20;fillColor=#ffffff;horizontalStack=0;resizeParent=1;resizeParentMax=0;resizeLast=0;collapsible=0;marginBottom=0;swimlaneFillColor=#ffffff;" vertex="1" parent="1">
          <mxGeometry x="442.5" y="820" width="70" height="50" as="geometry" />
        </mxCell>
        <mxCell id="o8lwn177sXqKOeNON-Jk-114" value="添加好友" style="text;html=1;align=center;verticalAlign=middle;resizable=0;points=[];autosize=1;strokeColor=none;fillColor=none;" vertex="1" parent="o8lwn177sXqKOeNON-Jk-113">
          <mxGeometry y="20" width="70" height="30" as="geometry" />
        </mxCell>
        <mxCell id="o8lwn177sXqKOeNON-Jk-115" value="D5&amp;nbsp; &amp;nbsp; &amp;nbsp; 好友信息" style="html=1;dashed=0;whiteSpace=wrap;shape=mxgraph.dfd.dataStoreID;align=left;spacingLeft=3;points=[[0,0],[0.5,0],[1,0],[0,0.5],[1,0.5],[0,1],[0.5,1],[1,1]];" vertex="1" parent="1">
          <mxGeometry x="597.5" y="840" width="100" height="30" as="geometry" />
        </mxCell>
        <mxCell id="o8lwn177sXqKOeNON-Jk-119" style="edgeStyle=orthogonalEdgeStyle;rounded=0;orthogonalLoop=1;jettySize=auto;html=1;entryX=0;entryY=0.5;entryDx=0;entryDy=0;" edge="1" parent="1" source="o8lwn177sXqKOeNON-Jk-110" target="o8lwn177sXqKOeNON-Jk-101">
          <mxGeometry relative="1" as="geometry" />
        </mxCell>
        <mxCell id="o8lwn177sXqKOeNON-Jk-144" value="回复" style="edgeLabel;html=1;align=center;verticalAlign=middle;resizable=0;points=[];" vertex="1" connectable="0" parent="o8lwn177sXqKOeNON-Jk-119">
          <mxGeometry x="-0.0236" relative="1" as="geometry">
            <mxPoint y="1" as="offset" />
          </mxGeometry>
        </mxCell>
        <mxCell id="o8lwn177sXqKOeNON-Jk-120" style="edgeStyle=orthogonalEdgeStyle;rounded=0;orthogonalLoop=1;jettySize=auto;html=1;" edge="1" parent="1" source="o8lwn177sXqKOeNON-Jk-95" target="o8lwn177sXqKOeNON-Jk-110">
          <mxGeometry relative="1" as="geometry">
            <Array as="points">
              <mxPoint x="434" y="949" />
              <mxPoint x="434" y="947" />
            </Array>
          </mxGeometry>
        </mxCell>
        <mxCell id="o8lwn177sXqKOeNON-Jk-148" value="帖子评论" style="edgeLabel;html=1;align=center;verticalAlign=middle;resizable=0;points=[];" vertex="1" connectable="0" parent="o8lwn177sXqKOeNON-Jk-120">
          <mxGeometry x="-0.0738" y="3" relative="1" as="geometry">
            <mxPoint as="offset" />
          </mxGeometry>
        </mxCell>
        <mxCell id="o8lwn177sXqKOeNON-Jk-123" style="edgeStyle=orthogonalEdgeStyle;rounded=0;orthogonalLoop=1;jettySize=auto;html=1;" edge="1" parent="1" source="o8lwn177sXqKOeNON-Jk-114" target="o8lwn177sXqKOeNON-Jk-115">
          <mxGeometry relative="1" as="geometry" />
        </mxCell>
        <mxCell id="o8lwn177sXqKOeNON-Jk-145" value="存储好友" style="edgeLabel;html=1;align=center;verticalAlign=middle;resizable=0;points=[];" vertex="1" connectable="0" parent="o8lwn177sXqKOeNON-Jk-123">
          <mxGeometry x="-0.0545" y="1" relative="1" as="geometry">
            <mxPoint as="offset" />
          </mxGeometry>
        </mxCell>
        <mxCell id="o8lwn177sXqKOeNON-Jk-124" style="edgeStyle=orthogonalEdgeStyle;rounded=0;orthogonalLoop=1;jettySize=auto;html=1;entryX=0.529;entryY=1.167;entryDx=0;entryDy=0;entryPerimeter=0;" edge="1" parent="1" source="o8lwn177sXqKOeNON-Jk-114" target="o8lwn177sXqKOeNON-Jk-92">
          <mxGeometry relative="1" as="geometry" />
        </mxCell>
        <mxCell id="o8lwn177sXqKOeNON-Jk-146" value="好友聊天" style="edgeLabel;html=1;align=center;verticalAlign=middle;resizable=0;points=[];" vertex="1" connectable="0" parent="o8lwn177sXqKOeNON-Jk-124">
          <mxGeometry x="-0.226" y="-2" relative="1" as="geometry">
            <mxPoint x="1" as="offset" />
          </mxGeometry>
        </mxCell>
        <mxCell id="o8lwn177sXqKOeNON-Jk-125" style="edgeStyle=orthogonalEdgeStyle;rounded=0;orthogonalLoop=1;jettySize=auto;html=1;" edge="1" parent="1" source="o8lwn177sXqKOeNON-Jk-110" target="o8lwn177sXqKOeNON-Jk-111">
          <mxGeometry relative="1" as="geometry" />
        </mxCell>
        <mxCell id="o8lwn177sXqKOeNON-Jk-134" value="存储评论" style="edgeLabel;html=1;align=center;verticalAlign=middle;resizable=0;points=[];" vertex="1" connectable="0" parent="o8lwn177sXqKOeNON-Jk-125">
          <mxGeometry x="-0.3953" y="-1" relative="1" as="geometry">
            <mxPoint as="offset" />
          </mxGeometry>
        </mxCell>
        <mxCell id="o8lwn177sXqKOeNON-Jk-126" style="edgeStyle=orthogonalEdgeStyle;rounded=0;orthogonalLoop=1;jettySize=auto;html=1;exitX=0.4;exitY=0.06;exitDx=0;exitDy=0;exitPerimeter=0;" edge="1" parent="1" source="o8lwn177sXqKOeNON-Jk-109">
          <mxGeometry relative="1" as="geometry">
            <mxPoint x="478" y="870" as="targetPoint" />
            <Array as="points">
              <mxPoint x="478" y="890" />
              <mxPoint x="478" y="890" />
            </Array>
          </mxGeometry>
        </mxCell>
        <mxCell id="o8lwn177sXqKOeNON-Jk-127" style="edgeStyle=orthogonalEdgeStyle;rounded=0;orthogonalLoop=1;jettySize=auto;html=1;exitX=0.5;exitY=1;exitDx=0;exitDy=0;entryX=-0.007;entryY=0.533;entryDx=0;entryDy=0;entryPerimeter=0;" edge="1" parent="1" source="o8lwn177sXqKOeNON-Jk-86" target="o8lwn177sXqKOeNON-Jk-95">
          <mxGeometry relative="1" as="geometry">
            <Array as="points">
              <mxPoint x="193" y="950" />
            </Array>
          </mxGeometry>
        </mxCell>
        <mxCell id="o8lwn177sXqKOeNON-Jk-142" value="发布帖子" style="edgeLabel;html=1;align=center;verticalAlign=middle;resizable=0;points=[];" vertex="1" connectable="0" parent="o8lwn177sXqKOeNON-Jk-127">
          <mxGeometry x="0.1853" y="1" relative="1" as="geometry">
            <mxPoint x="1" as="offset" />
          </mxGeometry>
        </mxCell>
        <mxCell id="o8lwn177sXqKOeNON-Jk-128" style="edgeStyle=orthogonalEdgeStyle;rounded=0;orthogonalLoop=1;jettySize=auto;html=1;entryX=-0.007;entryY=0.433;entryDx=0;entryDy=0;entryPerimeter=0;" edge="1" parent="1" target="o8lwn177sXqKOeNON-Jk-92">
          <mxGeometry relative="1" as="geometry">
            <mxPoint x="215" y="820" as="sourcePoint" />
            <Array as="points">
              <mxPoint x="195" y="820" />
              <mxPoint x="195" y="779" />
            </Array>
          </mxGeometry>
        </mxCell>
        <mxCell id="o8lwn177sXqKOeNON-Jk-140" value="发布聊天信息" style="edgeLabel;html=1;align=center;verticalAlign=middle;resizable=0;points=[];" vertex="1" connectable="0" parent="o8lwn177sXqKOeNON-Jk-128">
          <mxGeometry x="0.3033" y="-1" relative="1" as="geometry">
            <mxPoint x="-1" as="offset" />
          </mxGeometry>
        </mxCell>
      </root>
    </mxGraphModel>
  </diagram>
</mxfile>
